<?xml version="1.0" encoding="UTF-8" standalone="no"?>
<svg width="2681px" height="814px" viewBox="0 0 2681 814" version="1.1" xmlns="http://www.w3.org/2000/svg" xmlns:xlink="http://www.w3.org/1999/xlink" xmlns:sketch="http://www.bohemiancoding.com/sketch/ns">
    <!-- Generator: Sketch 3.3.3 (12081) - http://www.bohemiancoding.com/sketch -->
    <title>Climb Logo Beta</title>
    <desc>Created with Sketch.</desc>
    <defs></defs>
    <g id="Page-1" stroke="none" stroke-width="1" fill="none" fill-rule="evenodd" sketch:type="MSPage">
        <g id="Climb-Logo-Beta" sketch:type="MSArtboardGroup" fill="#19374D">
            <g id="cli----b.social-+-Path-Copy-+-Type-something-Copy-Copy-Copy-Copy-Copy" sketch:type="MSLayerGroup" transform="translate(206.000000, 249.000000)">
                <g id="cli----b.social-+-Path-Copy" sketch:type="MSShapeGroup">
                    <path d="M723.374207,187.442211 L767.027641,337.383575 C767.510889,341.265552 771.860124,345.147529 776.209359,345.147529 L833.232664,345.147529 C839.031644,345.147529 843.380879,340.780305 842.414383,334.472092 L739.482485,8.38601982 C738.999237,4.01879564 734.650002,0.622065728 730.784015,0.622065728 L723.052041,0.622065728 C720.6358,0.622065728 716.286565,2.56305425 714.83682,5.47453704 L643.514302,209.019062 L576.494003,105.431788 C573.721058,101.145895 567.342539,97.6714919 562.2556,97.6714919 L552.179033,97.6714919 C547.088326,97.6714919 541.529384,101.558749 539.770061,106.334187 L454.980068,336.484833 C453.21749,341.269108 455.927086,345.147529 461.014102,345.147529 L522.138067,345.147529 C527.23315,345.147529 532.791054,341.261733 534.552797,336.466171 L571.473144,235.966924 L642.108528,346.107712 C643.487141,348.257363 646.667092,350 649.212307,350 L659.971412,350 C662.516108,350 665.282044,348.045078 666.141982,345.653918 L683.827261,296.477872 L723.374207,187.442211 Z" id="Path-Copy"></path>
                    <path d="M0.145213441,247.085101 C0.145213441,305.23404 49.0872377,348.845745 104.32873,348.845745 C139.218094,348.845745 164.415968,335.277659 182.345224,308.141487 C185.737246,303.295742 183.314373,298.449997 178.953203,294.573401 L149.878733,269.375527 C146.971286,266.952655 142.610116,267.921804 139.218094,271.313825 C131.464902,279.067017 123.227136,286.335635 106.267028,286.335635 C84.9457505,286.335635 68.4702176,268.890953 68.4702176,247.085101 C68.4702176,225.763823 85.9148995,207.834566 107.236177,207.834566 C118.381391,207.834566 128.557455,213.164886 135.341498,220.433503 C137.764371,222.856376 143.579265,223.825525 146.002137,221.402652 L175.076607,193.781906 C179.437777,189.90531 180.891501,184.57499 177.49948,180.21382 C159.085649,157.923393 135.341498,145.324456 104.813305,145.324456 C49.5718122,145.324456 0.145213441,189.90531 0.145213441,247.085101 L0.145213441,247.085101 Z M218.688312,334.793085 C218.688312,339.63883 223.049482,344 227.895227,344 L281.198422,344 C286.044167,344 290.405337,339.63883 290.405337,334.793085 L290.405337,14.0047672 C290.405337,9.15902226 286.044167,4.79785179 281.198422,4.79785179 L227.895227,4.79785179 C223.049482,4.79785179 218.688312,9.15902226 218.688312,14.0047672 L218.688312,334.793085 Z M378.113321,91.5366868 C399.434599,91.5366868 416.879281,74.5765794 416.879281,53.2553015 C416.879281,31.9340236 399.434599,14.4893417 378.113321,14.4893417 C356.792044,14.4893417 339.831936,31.9340236 339.831936,53.2553015 C339.831936,74.5765794 356.792044,91.5366868 378.113321,91.5366868 L378.113321,91.5366868 Z M342.739383,334.793085 C342.739383,339.63883 347.100554,344 351.946299,344 L405.249493,344 C410.095238,344 414.456409,339.63883 414.456409,334.793085 L414.456409,159.377116 C414.456409,154.046797 410.095238,150.170201 405.249493,150.170201 L351.946299,150.170201 C347.100554,150.170201 342.739383,154.046797 342.739383,159.377116 L342.739383,334.793085 Z M889.15431,334.793085 C889.15431,339.63883 893.515481,344 898.361226,344 L921.136227,344 C925.981972,344 929.373994,339.63883 931.312292,334.30851 L937.127185,318.317552 C937.127185,318.317552 959.417612,348.845745 1002.06017,348.845745 C1056.81709,348.845745 1098.00592,302.811168 1098.00592,247.085101 C1098.00592,178.760096 1053.42506,145.324456 1001.57559,145.324456 C985.100061,145.324456 967.170804,151.13935 961.35591,154.531371 L961.35591,14.0047672 C961.35591,9.15902226 956.99474,4.79785179 952.148995,4.79785179 L898.361226,4.79785179 C893.515481,4.79785179 889.15431,9.15902226 889.15431,14.0047672 L889.15431,334.793085 Z M953.602718,246.600526 C953.602718,224.794674 970.078251,207.834566 992.368678,207.834566 C1014.65911,207.834566 1031.61921,224.794674 1031.61921,246.600526 C1031.61921,268.890953 1014.65911,286.335635 992.368678,286.335635 C970.078251,286.335635 953.602718,268.890953 953.602718,246.600526 L953.602718,246.600526 Z M1134.25645,321.224999 C1134.25645,336.246808 1146.85539,348.845745 1161.8772,348.845745 C1177.38358,348.845745 1189.49795,336.246808 1189.49795,321.224999 C1189.49795,305.718615 1177.38358,293.604252 1161.8772,293.604252 C1146.85539,293.604252 1134.25645,305.718615 1134.25645,321.224999 L1134.25645,321.224999 Z M1236.0171,332.854787 C1245.70859,340.607979 1269.93731,348.845745 1301.91923,348.845745 C1356.67615,348.845745 1383.81232,321.224999 1383.81232,287.304784 C1383.81232,248.538824 1356.67615,233.03244 1317.42561,219.464354 C1300.95008,213.64946 1295.61976,208.803715 1295.61976,203.95797 C1295.61976,198.627651 1299.98093,197.173927 1306.2804,197.173927 C1325.1788,197.173927 1347.46923,208.319141 1347.46923,208.319141 C1351.34583,209.772864 1356.19157,208.319141 1357.6453,205.411694 L1375.57455,172.460628 C1378.482,167.614883 1375.08998,163.253712 1370.72881,160.346265 C1360.06817,153.562223 1336.80859,145.324456 1306.2804,145.324456 C1253.94635,145.324456 1230.68678,171.491479 1230.68678,203.95797 C1230.68678,234.001589 1247.16231,255.807441 1284.95912,268.890953 C1309.67242,277.613294 1312.57987,284.397337 1312.57987,289.243082 C1312.57987,295.057976 1308.2187,297.965423 1303.37295,297.965423 C1282.53625,297.965423 1259.76125,285.366486 1259.76125,285.366486 C1255.88465,283.428188 1251.03891,286.335635 1249.58518,289.243082 L1232.62508,322.678722 C1230.2022,327.039893 1232.62508,329.94734 1236.0171,332.854787 L1236.0171,332.854787 Z M1407.55647,246.600526 C1407.55647,302.326593 1453.10647,348.845745 1508.34796,348.845745 C1563.58946,348.845745 1609.13946,302.326593 1609.13946,246.600526 C1609.13946,191.843608 1563.58946,145.324456 1508.34796,145.324456 C1453.10647,145.324456 1407.55647,191.843608 1407.55647,246.600526 L1407.55647,246.600526 Z M1470.06658,246.600526 C1470.06658,225.279248 1487.02669,207.834566 1508.34796,207.834566 C1529.66924,207.834566 1546.62935,225.279248 1546.62935,246.600526 C1546.62935,268.406378 1529.66924,286.335635 1508.34796,286.335635 C1487.02669,286.335635 1470.06658,268.406378 1470.06658,246.600526 L1470.06658,246.600526 Z M1631.42989,247.085101 C1631.42989,305.23404 1680.37191,348.845745 1735.6134,348.845745 C1770.50277,348.845745 1795.70064,335.277659 1813.6299,308.141487 C1817.02192,303.295742 1814.59905,298.449997 1810.23788,294.573401 L1781.16341,269.375527 C1778.25596,266.952655 1773.89479,267.921804 1770.50277,271.313825 C1762.74958,279.067017 1754.51181,286.335635 1737.5517,286.335635 C1716.23042,286.335635 1699.75489,268.890953 1699.75489,247.085101 C1699.75489,225.763823 1717.19957,207.834566 1738.52085,207.834566 C1749.66606,207.834566 1759.84213,213.164886 1766.62617,220.433503 C1769.04904,222.856376 1774.86394,223.825525 1777.28681,221.402652 L1806.36128,193.781906 C1810.72245,189.90531 1812.17617,184.57499 1808.78415,180.21382 C1790.37032,157.923393 1766.62617,145.324456 1736.09798,145.324456 C1680.85649,145.324456 1631.42989,189.90531 1631.42989,247.085101 L1631.42989,247.085101 Z M1885.34692,91.5366868 C1906.6682,91.5366868 1924.11288,74.5765794 1924.11288,53.2553015 C1924.11288,31.9340236 1906.6682,14.4893417 1885.34692,14.4893417 C1864.02565,14.4893417 1847.06554,31.9340236 1847.06554,53.2553015 C1847.06554,74.5765794 1864.02565,91.5366868 1885.34692,91.5366868 L1885.34692,91.5366868 Z M1849.97299,334.793085 C1849.97299,339.63883 1854.33416,344 1859.1799,344 L1912.4831,344 C1917.32884,344 1921.69001,339.63883 1921.69001,334.793085 L1921.69001,159.377116 C1921.69001,154.046797 1917.32884,150.170201 1912.4831,150.170201 L1859.1799,150.170201 C1854.33416,150.170201 1849.97299,154.046797 1849.97299,159.377116 L1849.97299,334.793085 Z M1960.94055,284.881911 C1960.94055,323.163297 1989.53044,348.845745 2027.81183,348.845745 C2058.34002,348.845745 2075.30013,334.793085 2086.44534,324.61702 L2093.22938,337.700532 C2095.65226,343.030851 2099.04428,344 2101.95172,344 L2123.273,344 C2128.11875,344 2132.47992,339.63883 2132.47992,334.793085 L2132.47992,227.702121 C2132.47992,170.52233 2110.67407,145.324456 2050.58683,145.324456 C2024.4198,145.324456 1990.49959,151.13935 1986.13842,152.593074 C1981.77725,154.046797 1977.41608,157.438818 1978.8698,165.676585 L1983.23097,196.204778 C1984.20012,203.473396 1987.59214,208.803715 1994.86076,206.380843 C2007.4597,202.504247 2030.2347,199.112225 2043.31821,199.112225 C2066.57779,199.112225 2069.48523,208.803715 2069.48523,227.702121 C2069.48523,227.702121 2053.97885,219.948929 2032.173,219.948929 C1988.07672,219.948929 1960.94055,247.569675 1960.94055,284.881911 L1960.94055,284.881911 Z M2023.93523,280.036166 C2023.93523,268.890953 2033.14215,259.684037 2044.77193,259.684037 C2056.40172,259.684037 2065.60864,268.890953 2066.09321,280.036166 C2066.09321,291.665954 2056.40172,301.357444 2044.77193,301.357444 C2033.14215,301.357444 2023.93523,291.665954 2023.93523,280.036166 L2023.93523,280.036166 Z M2181.90652,334.793085 C2181.90652,339.63883 2186.26769,344 2191.11343,344 L2244.41663,344 C2249.26237,344 2253.62354,339.63883 2253.62354,334.793085 L2253.62354,14.0047672 C2253.62354,9.15902226 2249.26237,4.79785179 2244.41663,4.79785179 L2191.11343,4.79785179 C2186.26769,4.79785179 2181.90652,9.15902226 2181.90652,14.0047672 L2181.90652,334.793085 Z" id="cli----b.social"></path>
                </g>
            </g>
        </g>
    </g>
</svg>